<svg width="256" height="256" viewBox="0 0 256 256" fill="none" xmlns="http://www.w3.org/2000/svg">
  <defs>
    <linearGradient id="robotBody" x1="64" y1="56" x2="192" y2="208" gradientUnits="userSpaceOnUse">
      <stop stop-color="#F8FAFC"/>
      <stop offset="1" stop-color="#DDF7F2"/>
    </linearGradient>
    <linearGradient id="robotAccent" x1="76" y1="48" x2="180" y2="194" gradientUnits="userSpaceOnUse">
      <stop stop-color="#14B8A6"/>
      <stop offset="1" stop-color="#0F766E"/>
    </linearGradient>
    <radialGradient id="antennaGlow" cx="0" cy="0" r="1" gradientUnits="userSpaceOnUse" gradientTransform="translate(128 34) rotate(90) scale(26)">
      <stop stop-color="#99F6E4"/>
      <stop offset="1" stop-color="#99F6E4" stop-opacity="0"/>
    </radialGradient>
  </defs>
  <circle cx="128" cy="128" r="112" fill="#ECFDF5"/>
  <circle cx="128" cy="128" r="96" fill="#D9F7F1"/>
  <circle cx="128" cy="34" r="26" fill="url(#antennaGlow)"/>
  <path d="M128 42C131.314 42 134 44.6863 134 48V60H122V48C122 44.6863 124.686 42 128 42Z" fill="#0F172A"/>
  <circle cx="128" cy="34" r="10" fill="#14B8A6"/>
  <circle cx="128" cy="34" r="4" fill="#F8FAFC"/>
  <rect x="62" y="62" width="132" height="112" rx="34" fill="url(#robotBody)" stroke="#0F172A" stroke-width="8"/>
  <rect x="84" y="84" width="88" height="48" rx="20" fill="#0F172A"/>
  <ellipse cx="106" cy="108" rx="14" ry="16" fill="#67E8F9"/>
  <ellipse cx="150" cy="108" rx="14" ry="16" fill="#67E8F9"/>
  <circle cx="111" cy="105" r="5" fill="#F8FAFC"/>
  <circle cx="155" cy="105" r="5" fill="#F8FAFC"/>
  <ellipse cx="90" cy="136" rx="11" ry="7" fill="#F9A8D4" fill-opacity="0.55"/>
  <ellipse cx="166" cy="136" rx="11" ry="7" fill="#F9A8D4" fill-opacity="0.55"/>
  <path d="M102 146C108.5 154.667 118 159 128 159C138 159 147.5 154.667 154 146" stroke="#0F766E" stroke-width="8" stroke-linecap="round"/>
  <rect x="96" y="172" width="64" height="16" rx="8" fill="url(#robotAccent)"/>
  <rect x="48" y="96" width="20" height="52" rx="10" fill="#0F172A"/>
  <g transform="rotate(-24 198 112)">
    <rect x="188" y="82" width="20" height="52" rx="10" fill="#0F172A"/>
    <circle cx="198" cy="108" r="8" fill="#14B8A6"/>
    <path d="M214 78C220 72 228 72 233 78" stroke="#14B8A6" stroke-width="5" stroke-linecap="round"/>
    <path d="M217 68C224 61 235 61 242 68" stroke="#99F6E4" stroke-width="4" stroke-linecap="round"/>
  </g>
  <circle cx="58" cy="122" r="8" fill="#14B8A6"/>
  <rect x="90" y="188" width="18" height="36" rx="9" fill="#0F172A"/>
  <rect x="148" y="188" width="18" height="36" rx="9" fill="#0F172A"/>
  <circle cx="99" cy="220" r="8" fill="#14B8A6"/>
  <circle cx="157" cy="220" r="8" fill="#14B8A6"/>
  <circle cx="64" cy="70" r="10" fill="#A7F3D0"/>
  <circle cx="190" cy="182" r="12" fill="#99F6E4"/>
  <circle cx="52" cy="184" r="8" fill="#CCFBF1"/>
</svg>
