<svg width="128" height="128" viewBox="0 0 48 48" fill="none" xmlns="http://www.w3.org/2000/svg">
  <path d="M24 4C29.106 7.821 35.071 10.018 42 10.594V21C42 32.624 34.57 42.014 24 45.8C13.43 42.014 6 32.624 6 21V10.594C12.929 10.018 18.894 7.821 24 4Z" fill="#0F172A"/>
  <path d="M14.75 24C17.34 20.185 20.625 18.278 24 18.278C27.375 18.278 30.66 20.185 33.25 24C30.66 27.815 27.375 29.722 24 29.722C20.625 29.722 17.34 27.815 14.75 24Z" fill="white"/>
  <circle cx="24" cy="24" r="5.1" fill="#14B8A6"/>
  <circle cx="24" cy="24" r="1.8" fill="#0F172A"/>
  <circle cx="34.6" cy="13.4" r="2.5" fill="#14B8A6"/>
</svg>
