<svg width="320" height="260" viewBox="0 0 320 260" fill="none" xmlns="http://www.w3.org/2000/svg">
  <rect width="320" height="260" rx="36" fill="white"/>
  <rect x="18" y="18" width="284" height="224" rx="28" fill="#F8FCFC" stroke="#D7F1ED"/>
  <path d="M112 48C129.02 60.735 148.902 68.054 172 69.974V104.667C172 143.411 147.232 174.713 112 187.333C76.768 174.713 52 143.411 52 104.667V69.974C75.098 68.054 94.98 60.735 112 48Z" fill="#0F172A"/>
  <path d="M81.167 114.667C89.8 101.951 100.75 95.593 112 95.593C123.25 95.593 134.2 101.951 142.833 114.667C134.2 127.382 123.25 133.741 112 133.741C100.75 133.741 89.8 127.382 81.167 114.667Z" fill="white"/>
  <circle cx="112" cy="114.667" r="17" fill="#14B8A6"/>
  <circle cx="112" cy="114.667" r="6" fill="#0F172A"/>
  <circle cx="147.333" cy="79.333" r="8.333" fill="#14B8A6"/>
  <rect x="191" y="78" width="82" height="12" rx="6" fill="#D7F1ED"/>
  <rect x="191" y="100" width="60" height="12" rx="6" fill="#BCECE4"/>
  <rect x="191" y="140" width="90" height="10" rx="5" fill="#E2E8F0"/>
  <rect x="191" y="158" width="70" height="10" rx="5" fill="#E2E8F0"/>
</svg>
